<svg width="244" height="103" viewBox="0 0 244 103" fill="none" xmlns="http://www.w3.org/2000/svg">
<g filter="url(#filter0_d_91_53)">
<rect x="22" y="5" width="200" height="58.3611" rx="29.1806" fill="#FF64AE"/>
</g>
<path d="M76.5972 28.1931V39.3611H74.3572V32.0971L71.3652 39.3611H69.6692L66.6612 32.0971V39.3611H64.4212V28.1931H66.9652L70.5172 36.4971L74.0692 28.1931H76.5972ZM84.3478 39.5051C83.4945 39.5051 82.7265 39.3185 82.0438 38.9451C81.3611 38.5611 80.8225 38.0225 80.4278 37.3291C80.0438 36.6358 79.8518 35.8358 79.8518 34.9291C79.8518 34.0225 80.0491 33.2225 80.4438 32.5291C80.8491 31.8358 81.3985 31.3025 82.0918 30.9291C82.7851 30.5451 83.5585 30.3531 84.4118 30.3531C85.2651 30.3531 86.0385 30.5451 86.7318 30.9291C87.4251 31.3025 87.9691 31.8358 88.3638 32.5291C88.7691 33.2225 88.9718 34.0225 88.9718 34.9291C88.9718 35.8358 88.7638 36.6358 88.3478 37.3291C87.9425 38.0225 87.3878 38.5611 86.6838 38.9451C85.9905 39.3185 85.2118 39.5051 84.3478 39.5051ZM84.3478 37.5531C84.7531 37.5531 85.1318 37.4571 85.4838 37.2651C85.8465 37.0625 86.1345 36.7638 86.3478 36.3691C86.5611 35.9745 86.6678 35.4945 86.6678 34.9291C86.6678 34.0865 86.4438 33.4411 85.9958 32.9931C85.5585 32.5345 85.0198 32.3051 84.3798 32.3051C83.7398 32.3051 83.2011 32.5345 82.7638 32.9931C82.3371 33.4411 82.1238 34.0865 82.1238 34.9291C82.1238 35.7718 82.3318 36.4225 82.7478 36.8811C83.1745 37.3291 83.7078 37.5531 84.3478 37.5531ZM94.4549 31.8731C94.7429 31.4038 95.1163 31.0358 95.5749 30.7691C96.0443 30.5025 96.5776 30.3691 97.1749 30.3691V32.7211H96.5829C95.8789 32.7211 95.3456 32.8865 94.9829 33.2171C94.6309 33.5478 94.4549 34.1238 94.4549 34.9451V39.3611H92.2149V30.4971H94.4549V31.8731ZM108.524 34.7371C108.524 35.0571 108.502 35.3451 108.46 35.6011H101.98C102.033 36.2411 102.257 36.7425 102.652 37.1051C103.046 37.4678 103.532 37.6491 104.108 37.6491C104.94 37.6491 105.532 37.2918 105.884 36.5771H108.3C108.044 37.4305 107.553 38.1345 106.828 38.6891C106.102 39.2331 105.212 39.5051 104.156 39.5051C103.302 39.5051 102.534 39.3185 101.852 38.9451C101.18 38.5611 100.652 38.0225 100.268 37.3291C99.8944 36.6358 99.7077 35.8358 99.7077 34.9291C99.7077 34.0118 99.8944 33.2065 100.268 32.5131C100.641 31.8198 101.164 31.2865 101.836 30.9131C102.508 30.5398 103.281 30.3531 104.156 30.3531C104.998 30.3531 105.75 30.5345 106.412 30.8971C107.084 31.2598 107.601 31.7771 107.964 32.4491C108.337 33.1105 108.524 33.8731 108.524 34.7371ZM106.204 34.0971C106.193 33.5211 105.985 33.0625 105.58 32.7211C105.174 32.3691 104.678 32.1931 104.092 32.1931C103.537 32.1931 103.068 32.3638 102.684 32.7051C102.31 33.0358 102.081 33.4998 101.996 34.0971H106.204ZM121.075 28.1931C122.249 28.1931 123.278 28.4225 124.163 28.8811C125.059 29.3398 125.747 29.9958 126.227 30.8491C126.718 31.6918 126.963 32.6731 126.963 33.7931C126.963 34.9131 126.718 35.8945 126.227 36.7371C125.747 37.5691 125.059 38.2145 124.163 38.6731C123.278 39.1318 122.249 39.3611 121.075 39.3611H117.171V28.1931H121.075ZM120.995 37.4571C122.169 37.4571 123.075 37.1371 123.715 36.4971C124.355 35.8571 124.675 34.9558 124.675 33.7931C124.675 32.6305 124.355 31.7238 123.715 31.0731C123.075 30.4118 122.169 30.0811 120.995 30.0811H119.411V37.4571H120.995ZM138.48 34.7371C138.48 35.0571 138.459 35.3451 138.416 35.6011H131.936C131.989 36.2411 132.213 36.7425 132.608 37.1051C133.003 37.4678 133.488 37.6491 134.064 37.6491C134.896 37.6491 135.488 37.2918 135.84 36.5771H138.256C138 37.4305 137.509 38.1345 136.784 38.6891C136.059 39.2331 135.168 39.5051 134.112 39.5051C133.259 39.5051 132.491 39.3185 131.808 38.9451C131.136 38.5611 130.608 38.0225 130.224 37.3291C129.851 36.6358 129.664 35.8358 129.664 34.9291C129.664 34.0118 129.851 33.2065 130.224 32.5131C130.597 31.8198 131.12 31.2865 131.792 30.9131C132.464 30.5398 133.237 30.3531 134.112 30.3531C134.955 30.3531 135.707 30.5345 136.368 30.8971C137.04 31.2598 137.557 31.7771 137.92 32.4491C138.293 33.1105 138.48 33.8731 138.48 34.7371ZM136.16 34.0971C136.149 33.5211 135.941 33.0625 135.536 32.7211C135.131 32.3691 134.635 32.1931 134.048 32.1931C133.493 32.1931 133.024 32.3638 132.64 32.7051C132.267 33.0358 132.037 33.4998 131.952 34.0971H136.16ZM144.323 32.3371V36.6251C144.323 36.9238 144.392 37.1425 144.531 37.2811C144.68 37.4091 144.926 37.4731 145.267 37.4731H146.307V39.3611H144.899C143.011 39.3611 142.067 38.4438 142.067 36.6091V32.3371H141.011V30.4971H142.067V28.3051H144.323V30.4971H146.307V32.3371H144.323ZM148.942 34.8971C148.942 34.0011 149.118 33.2065 149.47 32.5131C149.833 31.8198 150.318 31.2865 150.926 30.9131C151.545 30.5398 152.233 30.3531 152.99 30.3531C153.651 30.3531 154.227 30.4865 154.718 30.7531C155.219 31.0198 155.619 31.3558 155.918 31.7611V30.4971H158.174V39.3611H155.918V38.0651C155.63 38.4811 155.23 38.8278 154.718 39.1051C154.217 39.3718 153.635 39.5051 152.974 39.5051C152.227 39.5051 151.545 39.3131 150.926 38.9291C150.318 38.5451 149.833 38.0065 149.47 37.3131C149.118 36.6091 148.942 35.8038 148.942 34.8971ZM155.918 34.9291C155.918 34.3851 155.811 33.9211 155.598 33.5371C155.385 33.1425 155.097 32.8438 154.734 32.6411C154.371 32.4278 153.982 32.3211 153.566 32.3211C153.15 32.3211 152.766 32.4225 152.414 32.6251C152.062 32.8278 151.774 33.1265 151.55 33.5211C151.337 33.9051 151.23 34.3638 151.23 34.8971C151.23 35.4305 151.337 35.8998 151.55 36.3051C151.774 36.6998 152.062 37.0038 152.414 37.2171C152.777 37.4305 153.161 37.5371 153.566 37.5371C153.982 37.5371 154.371 37.4358 154.734 37.2331C155.097 37.0198 155.385 36.7211 155.598 36.3371C155.811 35.9425 155.918 35.4731 155.918 34.9291ZM163.098 29.4411C162.703 29.4411 162.372 29.3185 162.106 29.0731C161.85 28.8171 161.722 28.5025 161.722 28.1291C161.722 27.7558 161.85 27.4465 162.106 27.2011C162.372 26.9451 162.703 26.8171 163.098 26.8171C163.492 26.8171 163.818 26.9451 164.074 27.2011C164.34 27.4465 164.474 27.7558 164.474 28.1291C164.474 28.5025 164.34 28.8171 164.074 29.0731C163.818 29.3185 163.492 29.4411 163.098 29.4411ZM164.202 30.4971V39.3611H161.962V30.4971H164.202ZM170.255 27.5211V39.3611H168.015V27.5211H170.255ZM177.46 39.5051C176.735 39.5051 176.084 39.3771 175.508 39.1211C174.932 38.8545 174.473 38.4971 174.132 38.0491C173.801 37.6011 173.62 37.1051 173.588 36.5611H175.844C175.887 36.9025 176.052 37.1851 176.34 37.4091C176.639 37.6331 177.007 37.7451 177.444 37.7451C177.871 37.7451 178.201 37.6598 178.436 37.4891C178.681 37.3185 178.804 37.0998 178.804 36.8331C178.804 36.5451 178.655 36.3318 178.356 36.1931C178.068 36.0438 177.604 35.8838 176.964 35.7131C176.303 35.5531 175.759 35.3878 175.332 35.2171C174.916 35.0465 174.553 34.7851 174.244 34.4331C173.945 34.0811 173.796 33.6065 173.796 33.0091C173.796 32.5185 173.935 32.0705 174.212 31.6651C174.5 31.2598 174.905 30.9398 175.428 30.7051C175.961 30.4705 176.585 30.3531 177.3 30.3531C178.356 30.3531 179.199 30.6198 179.828 31.1531C180.457 31.6758 180.804 32.3851 180.868 33.2811H178.724C178.692 32.9291 178.543 32.6518 178.276 32.4491C178.02 32.2358 177.673 32.1291 177.236 32.1291C176.831 32.1291 176.516 32.2038 176.292 32.3531C176.079 32.5025 175.972 32.7105 175.972 32.9771C175.972 33.2758 176.121 33.5051 176.42 33.6651C176.719 33.8145 177.183 33.9691 177.812 34.1291C178.452 34.2891 178.98 34.4545 179.396 34.6251C179.812 34.7958 180.169 35.0625 180.468 35.4251C180.777 35.7771 180.937 36.2465 180.948 36.8331C180.948 37.3451 180.804 37.8038 180.516 38.2091C180.239 38.6145 179.833 38.9345 179.3 39.1691C178.777 39.3931 178.164 39.5051 177.46 39.5051Z" fill="white"/>
<defs>
<filter id="filter0_d_91_53" x="0" y="0" width="244" height="102.361" filterUnits="userSpaceOnUse" color-interpolation-filters="sRGB">
<feFlood flood-opacity="0" result="BackgroundImageFix"/>
<feColorMatrix in="SourceAlpha" type="matrix" values="0 0 0 0 0 0 0 0 0 0 0 0 0 0 0 0 0 0 127 0" result="hardAlpha"/>
<feOffset dy="17"/>
<feGaussianBlur stdDeviation="11"/>
<feComposite in2="hardAlpha" operator="out"/>
<feColorMatrix type="matrix" values="0 0 0 0 1 0 0 0 0 0.929167 0 0 0 0 0.962984 0 0 0 1 0"/>
<feBlend mode="normal" in2="BackgroundImageFix" result="effect1_dropShadow_91_53"/>
<feBlend mode="normal" in="SourceGraphic" in2="effect1_dropShadow_91_53" result="shape"/>
</filter>
</defs>
</svg>
