<svg width="25" height="21" viewBox="0 0 25 21" fill="none" xmlns="http://www.w3.org/2000/svg">
<path d="M22.4302 5.4079C22.446 5.63 22.446 5.8521 22.446 6.0742C22.446 12.8476 17.2906 20.6522 7.868 20.6522C4.9651 20.6522 2.2684 19.8114 0 18.3521C0.4125 18.3997 0.809001 18.4155 1.2373 18.4155C3.6326 18.4155 5.8375 17.6065 7.5983 16.2265C5.3458 16.1789 3.4581 14.7036 2.8077 12.6731C3.125 12.7207 3.4422 12.7524 3.7754 12.7524C4.2354 12.7524 4.6955 12.689 5.1237 12.578C2.776 12.102 1.0152 10.0399 1.0152 7.5494V7.486C1.6973 7.8667 2.4905 8.1046 3.3312 8.1363C1.9511 7.2163 1.0469 5.6458 1.0469 3.8692C1.0469 2.9174 1.3007 2.045 1.7449 1.2835C4.2671 4.3927 8.0583 6.4231 12.3096 6.6452C12.2303 6.2645 12.1827 5.868 12.1827 5.4714C12.1827 2.6478 14.4669 0.347702 17.3064 0.347702C18.7816 0.347702 20.1141 0.966302 21.05 1.9657C22.208 1.7436 23.3184 1.3153 24.302 0.728401C23.9212 1.9181 23.1122 2.9175 22.0494 3.552C23.0805 3.441 24.0799 3.1554 24.9999 2.7588C24.302 3.774 23.4295 4.6782 22.4302 5.4079Z" fill="#091156"/>
</svg>
